{
  "accessors": [
    {
      "bufferView": 0,
      "componentType": 5123,
      "count": 2880,
      "type": "SCALAR"
    },
    {
      "bufferView": 1,
      "componentType": 5126,
      "count": 559,
      "min": [
        -0.19999979436397553,
        -0.19999998807907105,
        -0.19999998807907105
      ],
      "max": [
        0.19999992847442628,
        0.19999998807907105,
        0.1999998539686203
      ],
      "type": "VEC3"
    },
    {
      "bufferView": 2,
      "componentType": 5126,
      "count": 559,
      "type": "VEC3"
    },
    {
      "bufferView": 3,
      "componentType": 5126,
      "count": 559,
      "type": "VEC2"
    }
  ],
  "asset": {
    "version": "2.0"
  },
  "bufferViews": [
    {
      "buffer": 0,
      "byteLength": 5760,
      "target": 34963
    },
    {
      "buffer": 0,
      "byteLength": 6708,
      "byteOffset": 5760,
      "target": 34962
    },
    {
      "buffer": 0,
      "byteLength": 6708,
      "byteOffset": 12468,
      "target": 34962
    },
    {
      "buffer": 0,
      "byteLength": 4472,
      "byteOffset": 19176,
      "target": 34962
    }
  ],
  "materials": [
    {
      "name": "Material",
      "doubleSided": true
    }
  ],
  "meshes": [
    {
      "primitives": [
        {
          "attributes": {
            "NORMAL": 2,
            "POSITION": 1,
            "TEXCOORD_0": 3
          },
          "indices": 0,
          "material": 0,
          "mode": 4
        }
      ],
      "name": "sphere"
    }
  ],
  "nodes": [
    {
      "mesh": 0,
      "extras": {
        "meta_spatial": {
          "entity_id": "sphere"
        }
      },
      "name": "sphere"
    }
  ],
  "scene": 0,
  "scenes": [
    {
      "nodes": [
        0
      ]
    }
  ],
  "buffers": [
    {
      "byteLength": 23648,
      "uri": "data:application/octet-stream;base64,"
    }
  ]
}
